<?xml version="1.0" encoding="UTF-8"?>
<!-- Created with EazyDraw for Mac ( http://www.eazydraw.com/ ) -->

<svg version="1.2" baseProfile="tiny" xmlns:dc="http://purl.org/dc/elements/1.1/" xmlns:cc="http://creativecommons.org/ns#" xmlns:rdf="http://www.w3.org/1999/02/22-rdf-syntax-ns#" xmlns:svg="http://www.w3.org/2000/svg" xmlns:xlink="http://www.w3.org/1999/xlink" xmlns="http://www.w3.org/2000/svg" width="551.509310922" height="551.509310922" viewBox="0, 0, 551.509310922, 551.509310922" preserveAspectRatio="none" id="svg2">
<defs id="defs_CA18184D">
<clipPath id="59FDCA0D_clip">
<path d="M177.461279732,283.529755748 C177.461279732,261.944368956 194.959593286,244.443055348 216.546980114,244.443055348 C238.134366941,244.443055348 255.63568055,261.944368956 255.63568055,283.529755748 C255.63568055,305.117142575 238.135366959,322.618456184 216.546980114,322.618456184
C194.958593268,322.618456184 177.461279732,305.118142593 177.461279732,283.527755712" clip-rule="nonzero"/>
</clipPath>
<clipPath id="5FFDCA0D_clip">
<path d="M177.461279732,283.529755748 C177.461279732,261.944368956 194.959593286,244.443055348 216.546980114,244.443055348 C238.134366941,244.443055348 255.63568055,261.944368956 255.63568055,283.529755748 C255.63568055,305.117142575 238.135366959,322.618456184 216.546980114,322.618456184
C194.958593268,322.618456184 177.461279732,305.118142593 177.461279732,283.527755712" clip-rule="nonzero"/>
</clipPath>
<clipPath id="750ECA0D_clip">
<path d="M177.461279732,283.529755748 C177.461279732,261.944368956 194.959593286,244.443055348 216.546980114,244.443055348 C238.134366941,244.443055348 255.63568055,261.944368956 255.63568055,283.529755748 C255.63568055,305.117142575 238.135366959,322.618456184 216.546980114,322.618456184
C194.958593268,322.618456184 177.461279732,305.118142593 177.461279732,283.527755712" clip-rule="nonzero"/>
</clipPath>
<clipPath id="AB0ECA0D_clip">
<path d="M177.461279732,283.529755748 C177.461279732,261.944368956 194.959593286,244.443055348 216.546980114,244.443055348 C238.134366941,244.443055348 255.63568055,261.944368956 255.63568055,283.529755748 C255.63568055,305.117142575 238.135366959,322.618456184 216.546980114,322.618456184
C194.958593268,322.618456184 177.461279732,305.118142593 177.461279732,283.527755712" clip-rule="nonzero"/>
</clipPath>
<clipPath id="A11ECA0D_clip">
<path d="M177.461279732,283.529755748 C177.461279732,261.944368956 194.959593286,244.443055348 216.546980114,244.443055348 C238.134366941,244.443055348 255.63568055,261.944368956 255.63568055,283.529755748 C255.63568055,305.117142575 238.135366959,322.618456184 216.546980114,322.618456184
C194.958593268,322.618456184 177.461279732,305.118142593 177.461279732,283.527755712" clip-rule="nonzero"/>
</clipPath>
<clipPath id="971ECA0D_clip">
<path d="M177.461279732,283.529755748 C177.461279732,261.944368956 194.959593286,244.443055348 216.546980114,244.443055348 C238.134366941,244.443055348 255.63568055,261.944368956 255.63568055,283.529755748 C255.63568055,305.117142575 238.135366959,322.618456184 216.546980114,322.618456184
C194.958593268,322.618456184 177.461279732,305.118142593 177.461279732,283.527755712" clip-rule="nonzero"/>
</clipPath>
<clipPath id="7D1ECA0D_clip">
<path d="M177.461279732,283.529755748 C177.461279732,261.944368956 194.959593286,244.443055348 216.546980114,244.443055348 C238.134366941,244.443055348 255.63568055,261.944368956 255.63568055,283.529755748 C255.63568055,305.117142575 238.135366959,322.618456184 216.546980114,322.618456184
C194.958593268,322.618456184 177.461279732,305.118142593 177.461279732,283.527755712" clip-rule="nonzero"/>
</clipPath>
<clipPath id="A32ECA0D_clip">
<path d="M177.461279732,283.529755748 C177.461279732,261.944368956 194.959593286,244.443055348 216.546980114,244.443055348 C238.134366941,244.443055348 255.63568055,261.944368956 255.63568055,283.529755748 C255.63568055,305.117142575 238.135366959,322.618456184 216.546980114,322.618456184
C194.958593268,322.618456184 177.461279732,305.118142593 177.461279732,283.527755712" clip-rule="nonzero"/>
</clipPath>
<clipPath id="B92ECA0D_clip">
<path d="M177.461279732,283.529755748 C177.461279732,261.944368956 194.959593286,244.443055348 216.546980114,244.443055348 C238.134366941,244.443055348 255.63568055,261.944368956 255.63568055,283.529755748 C255.63568055,305.117142575 238.135366959,322.618456184 216.546980114,322.618456184
C194.958593268,322.618456184 177.461279732,305.118142593 177.461279732,283.527755712" clip-rule="nonzero"/>
</clipPath>
<clipPath id="9F2ECA0D_clip">
<path d="M177.461279732,283.529755748 C177.461279732,261.944368956 194.959593286,244.443055348 216.546980114,244.443055348 C238.134366941,244.443055348 255.63568055,261.944368956 255.63568055,283.529755748 C255.63568055,305.117142575 238.135366959,322.618456184 216.546980114,322.618456184
C194.958593268,322.618456184 177.461279732,305.118142593 177.461279732,283.527755712" clip-rule="nonzero"/>
</clipPath>
<clipPath id="953ECA0D_clip">
<path d="M177.461279732,283.529755748 C177.461279732,261.944368956 194.959593286,244.443055348 216.546980114,244.443055348 C238.134366941,244.443055348 255.63568055,261.944368956 255.63568055,283.529755748 C255.63568055,305.117142575 238.135366959,322.618456184 216.546980114,322.618456184
C194.958593268,322.618456184 177.461279732,305.118142593 177.461279732,283.527755712" clip-rule="nonzero"/>
</clipPath>
<clipPath id="DB3ECA0D_clip">
<path d="M177.461279732,283.529755748 C177.461279732,261.944368956 194.959593286,244.443055348 216.546980114,244.443055348 C238.134366941,244.443055348 255.63568055,261.944368956 255.63568055,283.529755748 C255.63568055,305.117142575 238.135366959,322.618456184 216.546980114,322.618456184
C194.958593268,322.618456184 177.461279732,305.118142593 177.461279732,283.527755712" clip-rule="nonzero"/>
</clipPath>
<clipPath id="F14ECA0D_clip">
<path d="M177.461279732,283.529755748 C177.461279732,261.944368956 194.959593286,244.443055348 216.546980114,244.443055348 C238.134366941,244.443055348 255.63568055,261.944368956 255.63568055,283.529755748 C255.63568055,305.117142575 238.135366959,322.618456184 216.546980114,322.618456184
C194.958593268,322.618456184 177.461279732,305.118142593 177.461279732,283.527755712" clip-rule="nonzero"/>
</clipPath>
<clipPath id="784ECA0D_clip">
<path d="M177.461279732,283.529755748 C177.461279732,261.944368956 194.959593286,244.443055348 216.546980114,244.443055348 C238.134366941,244.443055348 255.63568055,261.944368956 255.63568055,283.529755748 C255.63568055,305.117142575 238.135366959,322.618456184 216.546980114,322.618456184
C194.958593268,322.618456184 177.461279732,305.118142593 177.461279732,283.527755712" clip-rule="nonzero"/>
</clipPath>
<clipPath id="8E4ECA0D_clip">
<path d="M177.461279732,283.529755748 C177.461279732,261.944368956 194.959593286,244.443055348 216.546980114,244.443055348 C238.134366941,244.443055348 255.63568055,261.944368956 255.63568055,283.529755748 C255.63568055,305.117142575 238.135366959,322.618456184 216.546980114,322.618456184
C194.958593268,322.618456184 177.461279732,305.118142593 177.461279732,283.527755712" clip-rule="nonzero"/>
</clipPath>
<clipPath id="745ECA0D_clip">
<path d="M177.461279732,283.529755748 C177.461279732,261.944368956 194.959593286,244.443055348 216.546980114,244.443055348 C238.134366941,244.443055348 255.63568055,261.944368956 255.63568055,283.529755748 C255.63568055,305.117142575 238.135366959,322.618456184 216.546980114,322.618456184
C194.958593268,322.618456184 177.461279732,305.118142593 177.461279732,283.527755712" clip-rule="nonzero"/>
</clipPath>
<clipPath id="9A5ECA0D_clip">
<path d="M177.461279732,283.529755748 C177.461279732,261.944368956 194.959593286,244.443055348 216.546980114,244.443055348 C238.134366941,244.443055348 255.63568055,261.944368956 255.63568055,283.529755748 C255.63568055,305.117142575 238.135366959,322.618456184 216.546980114,322.618456184
C194.958593268,322.618456184 177.461279732,305.118142593 177.461279732,283.527755712" clip-rule="nonzero"/>
</clipPath>
<clipPath id="F06ECA0D_clip">
<path d="M177.461279732,283.529755748 C177.461279732,261.944368956 194.959593286,244.443055348 216.546980114,244.443055348 C238.134366941,244.443055348 255.63568055,261.944368956 255.63568055,283.529755748 C255.63568055,305.117142575 238.135366959,322.618456184 216.546980114,322.618456184
C194.958593268,322.618456184 177.461279732,305.118142593 177.461279732,283.527755712" clip-rule="nonzero"/>
</clipPath>
<clipPath id="276ECA0D_clip">
<path d="M177.461279732,283.529755748 C177.461279732,261.944368956 194.959593286,244.443055348 216.546980114,244.443055348 C238.134366941,244.443055348 255.63568055,261.944368956 255.63568055,283.529755748 C255.63568055,305.117142575 238.135366959,322.618456184 216.546980114,322.618456184
C194.958593268,322.618456184 177.461279732,305.118142593 177.461279732,283.527755712" clip-rule="nonzero"/>
</clipPath>
<clipPath id="3D6ECA0D_clip">
<path d="M177.461279732,283.529755748 C177.461279732,261.944368956 194.959593286,244.443055348 216.546980114,244.443055348 C238.134366941,244.443055348 255.63568055,261.944368956 255.63568055,283.529755748 C255.63568055,305.117142575 238.135366959,322.618456184 216.546980114,322.618456184
C194.958593268,322.618456184 177.461279732,305.118142593 177.461279732,283.527755712" clip-rule="nonzero"/>
</clipPath>
<clipPath id="837ECA0D_clip">
<path d="M177.461279732,283.529755748 C177.461279732,261.944368956 194.959593286,244.443055348 216.546980114,244.443055348 C238.134366941,244.443055348 255.63568055,261.944368956 255.63568055,283.529755748 C255.63568055,305.117142575 238.135366959,322.618456184 216.546980114,322.618456184
C194.958593268,322.618456184 177.461279732,305.118142593 177.461279732,283.527755712" clip-rule="nonzero"/>
</clipPath>
<clipPath id="997ECA0D_clip">
<path d="M177.461279732,283.529755748 C177.461279732,261.944368956 194.959593286,244.443055348 216.546980114,244.443055348 C238.134366941,244.443055348 255.63568055,261.944368956 255.63568055,283.529755748 C255.63568055,305.117142575 238.135366959,322.618456184 216.546980114,322.618456184
C194.958593268,322.618456184 177.461279732,305.118142593 177.461279732,283.527755712" clip-rule="nonzero"/>
</clipPath>
<clipPath id="E08ECA0D_clip">
<path d="M189.315970288,297.866810956 C189.315970288,276.281424164 206.814283842,258.780110556 228.40167067,258.780110556 C249.989057497,258.780110556 267.490371106,276.281424164 267.490371106,297.866810956 C267.490371106,319.454197783 249.990057515,336.955511392 228.40167067,336.955511392
C206.813283824,336.955511392 189.315970288,319.455197801 189.315970288,297.86481092" clip-rule="nonzero"/>
</clipPath>
<clipPath id="39AECA0D_clip">
<path d="M189.619497596,278.969674035 C189.619497596,263.885403738 201.846716698,251.659184655 216.929986977,251.659184655 C232.013257256,251.659184655 244.241476375,263.885403738 244.241476375,278.969674035 C244.241476375,294.053944332 232.014257274,306.279163398 216.929986977,306.279163398
C201.846716698,306.269163218 189.619497596,294.048944243 189.619497596,278.968674017" clip-rule="nonzero"/>
</clipPath>
<clipPath id="4FAECA0D_clip">
<path d="M189.619497596,278.969674035 C189.619497596,263.885403738 201.846716698,251.659184655 216.929986977,251.659184655 C232.013257256,251.659184655 244.241476375,263.885403738 244.241476375,278.969674035 C244.241476375,294.053944332 232.014257274,306.279163398 216.929986977,306.279163398
C201.846716698,306.269163218 189.619497596,294.048944243 189.619497596,278.968674017" clip-rule="nonzero"/>
</clipPath>
<clipPath id="45BECA0D_clip">
<path d="M189.619497596,278.969674035 C189.619497596,263.885403738 201.846716698,251.659184655 216.929986977,251.659184655 C232.013257256,251.659184655 244.241476375,263.885403738 244.241476375,278.969674035 C244.241476375,294.053944332 232.014257274,306.279163398 216.929986977,306.279163398
C201.846716698,306.269163218 189.619497596,294.048944243 189.619497596,278.968674017" clip-rule="nonzero"/>
</clipPath>
<clipPath id="6BBECA0D_clip">
<path d="M189.619497596,278.969674035 C189.619497596,263.885403738 201.846716698,251.659184655 216.929986977,251.659184655 C232.013257256,251.659184655 244.241476375,263.885403738 244.241476375,278.969674035 C244.241476375,294.053944332 232.014257274,306.279163398 216.929986977,306.279163398
C201.846716698,306.269163218 189.619497596,294.048944243 189.619497596,278.968674017" clip-rule="nonzero"/>
</clipPath>
<clipPath id="91CECA0D_clip">
<path d="M189.619497596,278.969674035 C189.619497596,263.885403738 201.846716698,251.659184655 216.929986977,251.659184655 C232.013257256,251.659184655 244.241476375,263.885403738 244.241476375,278.969674035 C244.241476375,294.053944332 232.014257274,306.279163398 216.929986977,306.279163398
C201.846716698,306.269163218 189.619497596,294.048944243 189.619497596,278.968674017" clip-rule="nonzero"/>
</clipPath>
<clipPath id="38CECA0D_clip">
<path d="M189.619497596,278.969674035 C189.619497596,263.885403738 201.846716698,251.659184655 216.929986977,251.659184655 C232.013257256,251.659184655 244.241476375,263.885403738 244.241476375,278.969674035 C244.241476375,294.053944332 232.014257274,306.279163398 216.929986977,306.279163398
C201.846716698,306.269163218 189.619497596,294.048944243 189.619497596,278.968674017" clip-rule="nonzero"/>
</clipPath>
<clipPath id="BECECA0D_clip">
<path d="M189.619497596,278.969674035 C189.619497596,263.885403738 201.846716698,251.659184655 216.929986977,251.659184655 C232.013257256,251.659184655 244.241476375,263.885403738 244.241476375,278.969674035 C244.241476375,294.053944332 232.014257274,306.279163398 216.929986977,306.279163398
C201.846716698,306.269163218 189.619497596,294.048944243 189.619497596,278.968674017" clip-rule="nonzero"/>
</clipPath>
<clipPath id="45DECA0D_clip">
<path d="M189.619497596,278.969674035 C189.619497596,263.885403738 201.846716698,251.659184655 216.929986977,251.659184655 C232.013257256,251.659184655 244.241476375,263.885403738 244.241476375,278.969674035 C244.241476375,294.053944332 232.014257274,306.279163398 216.929986977,306.279163398
C201.846716698,306.269163218 189.619497596,294.048944243 189.619497596,278.968674017" clip-rule="nonzero"/>
</clipPath>
<clipPath id="5BDECA0D_clip">
<path d="M189.619497596,278.969674035 C189.619497596,263.885403738 201.846716698,251.659184655 216.929986977,251.659184655 C232.013257256,251.659184655 244.241476375,263.885403738 244.241476375,278.969674035 C244.241476375,294.053944332 232.014257274,306.279163398 216.929986977,306.279163398
C201.846716698,306.269163218 189.619497596,294.048944243 189.619497596,278.968674017" clip-rule="nonzero"/>
</clipPath>
<clipPath id="E1EECA0D_clip">
<path d="M189.619497596,278.969674035 C189.619497596,263.885403738 201.846716698,251.659184655 216.929986977,251.659184655 C232.013257256,251.659184655 244.241476375,263.885403738 244.241476375,278.969674035 C244.241476375,294.053944332 232.014257274,306.279163398 216.929986977,306.279163398
C201.846716698,306.269163218 189.619497596,294.048944243 189.619497596,278.968674017" clip-rule="nonzero"/>
</clipPath>
<clipPath id="E7EECA0D_clip">
<path d="M189.619497596,278.969674035 C189.619497596,263.885403738 201.846716698,251.659184655 216.929986977,251.659184655 C232.013257256,251.659184655 244.241476375,263.885403738 244.241476375,278.969674035 C244.241476375,294.053944332 232.014257274,306.279163398 216.929986977,306.279163398
C201.846716698,306.269163218 189.619497596,294.048944243 189.619497596,278.968674017" clip-rule="nonzero"/>
</clipPath>
<clipPath id="DDEECA0D_clip">
<path d="M189.619497596,278.969674035 C189.619497596,263.885403738 201.846716698,251.659184655 216.929986977,251.659184655 C232.013257256,251.659184655 244.241476375,263.885403738 244.241476375,278.969674035 C244.241476375,294.053944332 232.014257274,306.279163398 216.929986977,306.279163398
C201.846716698,306.269163218 189.619497596,294.048944243 189.619497596,278.968674017" clip-rule="nonzero"/>
</clipPath>
<clipPath id="D3FECA0D_clip">
<path d="M189.619497596,278.969674035 C189.619497596,263.885403738 201.846716698,251.659184655 216.929986977,251.659184655 C232.013257256,251.659184655 244.241476375,263.885403738 244.241476375,278.969674035 C244.241476375,294.053944332 232.014257274,306.279163398 216.929986977,306.279163398
C201.846716698,306.269163218 189.619497596,294.048944243 189.619497596,278.968674017" clip-rule="nonzero"/>
</clipPath>
<clipPath id="C9FECA0D_clip">
<path d="M189.619497596,278.969674035 C189.619497596,263.885403738 201.846716698,251.659184655 216.929986977,251.659184655 C232.013257256,251.659184655 244.241476375,263.885403738 244.241476375,278.969674035 C244.241476375,294.053944332 232.014257274,306.279163398 216.929986977,306.279163398
C201.846716698,306.269163218 189.619497596,294.048944243 189.619497596,278.968674017" clip-rule="nonzero"/>
</clipPath>
<clipPath id="EFFECA0D_clip">
<path d="M189.619497596,278.969674035 C189.619497596,263.885403738 201.846716698,251.659184655 216.929986977,251.659184655 C232.013257256,251.659184655 244.241476375,263.885403738 244.241476375,278.969674035 C244.241476375,294.053944332 232.014257274,306.279163398 216.929986977,306.279163398
C201.846716698,306.269163218 189.619497596,294.048944243 189.619497596,278.968674017" clip-rule="nonzero"/>
</clipPath>
<clipPath id="E50FCA0D_clip">
<path d="M189.619497596,278.969674035 C189.619497596,263.885403738 201.846716698,251.659184655 216.929986977,251.659184655 C232.013257256,251.659184655 244.241476375,263.885403738 244.241476375,278.969674035 C244.241476375,294.053944332 232.014257274,306.279163398 216.929986977,306.279163398
C201.846716698,306.269163218 189.619497596,294.048944243 189.619497596,278.968674017" clip-rule="nonzero"/>
</clipPath>
<clipPath id="CB0FCA0D_clip">
<path d="M189.619497596,278.969674035 C189.619497596,263.885403738 201.846716698,251.659184655 216.929986977,251.659184655 C232.013257256,251.659184655 244.241476375,263.885403738 244.241476375,278.969674035 C244.241476375,294.053944332 232.014257274,306.279163398 216.929986977,306.279163398
C201.846716698,306.269163218 189.619497596,294.048944243 189.619497596,278.968674017" clip-rule="nonzero"/>
</clipPath>
<clipPath id="021FCA0D_clip">
<path d="M189.619497596,278.969674035 C189.619497596,263.885403738 201.846716698,251.659184655 216.929986977,251.659184655 C232.013257256,251.659184655 244.241476375,263.885403738 244.241476375,278.969674035 C244.241476375,294.053944332 232.014257274,306.279163398 216.929986977,306.279163398
C201.846716698,306.269163218 189.619497596,294.048944243 189.619497596,278.968674017" clip-rule="nonzero"/>
</clipPath>
<clipPath id="581FCA0D_clip">
<path d="M189.619497596,278.969674035 C189.619497596,263.885403738 201.846716698,251.659184655 216.929986977,251.659184655 C232.013257256,251.659184655 244.241476375,263.885403738 244.241476375,278.969674035 C244.241476375,294.053944332 232.014257274,306.279163398 216.929986977,306.279163398
C201.846716698,306.269163218 189.619497596,294.048944243 189.619497596,278.968674017" clip-rule="nonzero"/>
</clipPath>
<clipPath id="5E1FCA0D_clip">
<path d="M189.619497596,278.969674035 C189.619497596,263.885403738 201.846716698,251.659184655 216.929986977,251.659184655 C232.013257256,251.659184655 244.241476375,263.885403738 244.241476375,278.969674035 C244.241476375,294.053944332 232.014257274,306.279163398 216.929986977,306.279163398
C201.846716698,306.269163218 189.619497596,294.048944243 189.619497596,278.968674017" clip-rule="nonzero"/>
</clipPath>
<clipPath id="742FCA0D_clip">
<path d="M189.619497596,278.969674035 C189.619497596,263.885403738 201.846716698,251.659184655 216.929986977,251.659184655 C232.013257256,251.659184655 244.241476375,263.885403738 244.241476375,278.969674035 C244.241476375,294.053944332 232.014257274,306.279163398 216.929986977,306.279163398
C201.846716698,306.269163218 189.619497596,294.048944243 189.619497596,278.968674017" clip-rule="nonzero"/>
</clipPath>
<clipPath id="9A2FCA0D_clip">
<path d="M189.619497596,278.969674035 C189.619497596,263.885403738 201.846716698,251.659184655 216.929986977,251.659184655 C232.013257256,251.659184655 244.241476375,263.885403738 244.241476375,278.969674035 C244.241476375,294.053944332 232.014257274,306.279163398 216.929986977,306.279163398
C201.846716698,306.269163218 189.619497596,294.048944243 189.619497596,278.968674017" clip-rule="nonzero"/>
</clipPath>
<clipPath id="983FCA0D_clip">
<path d="M192.273545155,278.90967296 C192.273545155,265.851438968 202.85973485,255.267249308 215.915968807,255.267249308 C228.972202763,255.267249308 239.559392476,265.851438968 239.559392476,278.90967296 C239.559392476,291.967906952 228.975202817,302.555096666 215.915968807,302.555096666
C202.85973485,302.565096845 192.273545155,291.974907078 192.273545155,278.91467305" clip-rule="nonzero"/>
</clipPath>
<clipPath id="CE3FCA0D_clip">
<path d="M192.273545155,278.90967296 C192.273545155,265.851438968 202.85973485,255.267249308 215.915968807,255.267249308 C228.972202763,255.267249308 239.559392476,265.851438968 239.559392476,278.90967296 C239.559392476,291.967906952 228.975202817,302.555096666 215.915968807,302.555096666
C202.85973485,302.565096845 192.273545155,291.974907078 192.273545155,278.91467305" clip-rule="nonzero"/>
</clipPath>
<clipPath id="854FCA0D_clip">
<path d="M192.273545155,278.90967296 C192.273545155,265.851438968 202.85973485,255.267249308 215.915968807,255.267249308 C228.972202763,255.267249308 239.559392476,265.851438968 239.559392476,278.90967296 C239.559392476,291.967906952 228.975202817,302.555096666 215.915968807,302.555096666
C202.85973485,302.565096845 192.273545155,291.974907078 192.273545155,278.91467305" clip-rule="nonzero"/>
</clipPath>
<clipPath id="AC4FCA0D_clip">
<path d="M192.273545155,278.90967296 C192.273545155,265.851438968 202.85973485,255.267249308 215.915968807,255.267249308 C228.972202763,255.267249308 239.559392476,265.851438968 239.559392476,278.90967296 C239.559392476,291.967906952 228.975202817,302.555096666 215.915968807,302.555096666
C202.85973485,302.565096845 192.273545155,291.974907078 192.273545155,278.91467305" clip-rule="nonzero"/>
</clipPath>
<clipPath id="435FCA0D_clip">
<path d="M192.273545155,278.90967296 C192.273545155,265.851438968 202.85973485,255.267249308 215.915968807,255.267249308 C228.972202763,255.267249308 239.559392476,265.851438968 239.559392476,278.90967296 C239.559392476,291.967906952 228.975202817,302.555096666 215.915968807,302.555096666
C202.85973485,302.565096845 192.273545155,291.974907078 192.273545155,278.91467305" clip-rule="nonzero"/>
</clipPath>
<clipPath id="C95FCA0D_clip">
<path d="M192.273545155,278.90967296 C192.273545155,265.851438968 202.85973485,255.267249308 215.915968807,255.267249308 C228.972202763,255.267249308 239.559392476,265.851438968 239.559392476,278.90967296 C239.559392476,291.967906952 228.975202817,302.555096666 215.915968807,302.555096666
C202.85973485,302.565096845 192.273545155,291.974907078 192.273545155,278.91467305" clip-rule="nonzero"/>
</clipPath>
<clipPath id="406FCA0D_clip">
<path d="M192.273545155,278.90967296 C192.273545155,265.851438968 202.85973485,255.267249308 215.915968807,255.267249308 C228.972202763,255.267249308 239.559392476,265.851438968 239.559392476,278.90967296 C239.559392476,291.967906952 228.975202817,302.555096666 215.915968807,302.555096666
C202.85973485,302.565096845 192.273545155,291.974907078 192.273545155,278.91467305" clip-rule="nonzero"/>
</clipPath>
<clipPath id="B66FCA0D_clip">
<path d="M192.273545155,278.90967296 C192.273545155,265.851438968 202.85973485,255.267249308 215.915968807,255.267249308 C228.972202763,255.267249308 239.559392476,265.851438968 239.559392476,278.90967296 C239.559392476,291.967906952 228.975202817,302.555096666 215.915968807,302.555096666
C202.85973485,302.565096845 192.273545155,291.974907078 192.273545155,278.91467305" clip-rule="nonzero"/>
</clipPath>
<clipPath id="EC6FCA0D_clip">
<path d="M192.273545155,278.90967296 C192.273545155,265.851438968 202.85973485,255.267249308 215.915968807,255.267249308 C228.972202763,255.267249308 239.559392476,265.851438968 239.559392476,278.90967296 C239.559392476,291.967906952 228.975202817,302.555096666 215.915968807,302.555096666
C202.85973485,302.565096845 192.273545155,291.974907078 192.273545155,278.91467305" clip-rule="nonzero"/>
</clipPath>
<clipPath id="26AFCA0D_clip">
<path d="M307.499609907,22.6670813134 C307.499609907,22.6670813134 317.63979161,23.3080927998 319.563826087,36.9743376871 C321.487860564,50.6405825745 318.601808848,50.3185768044 318.601808848,50.3185768044 C318.601808848,50.3185768044 307.175604101,56.5836890698 289.02627888,59.1757355171
C284.539198476,59.8177470214 280.170120186,50.5185803883 278.889097231,46.7925136204 C277.608074276,43.0664468525 275.801041896,37.6153491735 280.491125938,34.7302974759 C285.18120998,31.8442457603 296.081405302,25.8731387632 307.501609942,22.6670813134" clip-rule="nonzero"/>
</clipPath>
<clipPath id="EDCFCA0D_clip">
<path d="M365.890656224,26.1941445153 C363.004604508,30.0422134694 345.294287155,41.1434123934 338.559166467,42.7444410824 C331.82404578,44.3454697715 328.741990552,40.179395119 326.815956039,36.6543319529 C324.89292158,33.126268733 321.798866137,19.8840314435 329.062996304,15.4149513615
C342.086229669,7.398807719059 356.713491777,4.833761755642 356.713491777,4.833761755642 C356.713491777,4.833761755642 369.403719175,8.160821373688 365.883656099,26.1941445153" clip-rule="nonzero"/>
</clipPath>
</defs>
<metadata id="metadata7">
<rdf:RDF>
<cc:Work rdf:about="">
<dc:format>image/svg+xml</dc:format>
<dc:type rdf:resource="http://purl.org/dc/dcmitype/StillImage"/>
<dc:title></dc:title>
</cc:Work>
</rdf:RDF>
</metadata>
<g id="layer_Paper" style="fill:#000000;stroke:#000000;fill-rule:nonzero;stroke-linecap:square;stroke-linejoin:miter;stroke-width:1;stroke-miterlimit:10">
<g id="E9F00D2D">
<polyline style="fill:#F00000;stroke:none" id="9D05EA2D" points="79.9558358837,7.614612749768 178.242703822,7.614612749768 178.242703822,258.484540222 79.9558358837,258.484540222 79.9558358837,7.614612749768"/>
<polyline style="fill:#F00000;stroke:none" id="AD05EA2D" points="10.9411098499,81.6511616207 247.263211436,81.6511616207 247.263211436,185.988501487 10.9411098499,185.988501487 10.9411098499,81.6511616207"/>
</g>
<path style="fill:#D1D3D4;stroke:none" id="B785197C" d="M240.501476626,201.966489201 C287.076893924,236.663800076 322.260209153,248.459905764 354.392497046,242.559852902 C386.528784974,236.663800076 397.736885394,221.651665573 405.538955298,199.025462851 C413.335025148,176.402260156 401.732921197,143.124962004 401.732921197,143.124962004
L405.380953882,144.664975802 C405.400954061,144.718976286 413.788029206,165.099158884 413.460026268,188.447368075 C413.132023329,211.902578225 400.090906486,245.038875113 364.686589277,256.848980927 C335.183324939,266.68906909 304.054046033,254.832962864 280.131831699,242.509852454
C256.152616855,230.152741739 239.439467111,215.382609404 239.393466699,215.342609046 L240.493476555,201.972489255"/>
<path style="fill:none;stroke-linecap:butt;stroke-width:1.629014595336;stroke-miterlimit:3.864" id="9C26197C" d="M240.501476626,201.966489201 C287.076893924,236.663800076 322.260209153,248.459905764 354.392497046,242.559852902 C386.528784974,236.663800076 397.736885394,221.651665573 405.538955298,199.025462851 C413.335025148,176.402260156 401.732921197,143.124962004 401.732921197,143.124962004
L405.380953882,144.664975802 C405.400954061,144.718976286 413.788029206,165.099158884 413.460026268,188.447368075 C413.132023329,211.902578225 400.090906486,245.038875113 364.686589277,256.848980927 C335.183324939,266.68906909 304.054046033,254.832962864 280.131831699,242.509852454
C256.152616855,230.152741739 239.439467111,215.382609404 239.393466699,215.342609046 L240.493476555,201.972489255 z"/>
<path style="stroke:none" id="AE26197C" d="M176.231900796,286.10724307 C176.231900796,261.555756829 156.328988743,241.652844775 131.777502502,241.652844775 C107.226016261,241.652844775 87.3231042075,261.555756829 87.3231042075,286.10724307 C87.3231042075,310.65872931 107.226016261,330.561641364 131.777502502,330.561641364
C156.328988743,330.561641364 176.231900796,310.65872931 176.231900796,286.10724307"/>
<path style="fill:none;stroke-linecap:butt;stroke-width:1.629014595336;stroke-miterlimit:3.864" id="A036197C" d="M176.231900796,286.10724307 C176.231900796,261.555756829 156.328988743,241.652844775 131.777502502,241.652844775 C107.226016261,241.652844775 87.3231042075,261.555756829 87.3231042075,286.10724307 C87.3231042075,310.65872931 107.226016261,330.561641364 131.777502502,330.561641364
C156.328988743,330.561641364 176.231900796,310.65872931 176.231900796,286.10724307"/>
<path style="fill:#F0F0F0;stroke:none" id="A236197C" d="M172.676868944,284.477228465 C172.676868944,261.889684391 154.366046585,243.578862032 131.778502511,243.578862032 C109.190958437,243.578862032 90.8801360771,261.889684391 90.8801360771,284.477228465 C90.8801360771,307.064772539 109.190958437,325.375594899 131.778502511,325.375594899
C154.366046585,325.375594899 172.676868944,307.064772539 172.676868944,284.477228465"/>
<path style="fill:none;stroke-linecap:butt;stroke-width:1.497813419824;stroke-miterlimit:3.864" id="7536197C" d="M172.676868944,284.477228465 C172.676868944,261.889684391 154.366046585,243.578862032 131.778502511,243.578862032 C109.190958437,243.578862032 90.8801360771,261.889684391 90.8801360771,284.477228465 C90.8801360771,307.064772539 109.190958437,325.375594899 131.778502511,325.375594899
C154.366046585,325.375594899 172.676868944,307.064772539 172.676868944,284.477228465"/>
<g id="59FDCA0D" clip-path="url(#59FDCA0D_clip)">
<g id="980FCEBC">
<g id="9476197C">
<polyline style="fill:#DBDCDD;stroke:none" id="4176197C" points="135.273533825,236.096794995 137.298551969,234.726782721 181.010943614,299.537363398 178.987925489,300.907375673"/>
</g>
</g>
</g>
<g id="5FFDCA0D" clip-path="url(#5FFDCA0D_clip)">
<g id="4D0FCEBC">
<g id="C976197C">
<polyline style="fill:#D9DADB;stroke:none" id="8676197C" points="133.248515682,237.46680727 135.273533825,236.096794995 178.987925489,300.907375673 176.963907355,302.277387948"/>
</g>
</g>
</g>
<g id="750ECA0D" clip-path="url(#750ECA0D_clip)">
<g id="221FCEBC">
<g id="8086197C">
<polyline style="fill:#D6D7D9;stroke:none" id="BB76197C" points="131.223497538,238.826819455 133.248515682,237.46680727 176.963907355,302.277387948 174.938889211,303.637400133"/>
</g>
</g>
</g>
<g id="AB0ECA0D" clip-path="url(#AB0ECA0D_clip)">
<g id="171FCEBC">
<g id="3686197C">
<polyline style="fill:#D4D5D6;stroke:none" id="8286197C" points="129.198479395,240.19683173 131.223497538,238.826819455 174.938889211,303.637400133 172.913871068,305.007412408"/>
</g>
</g>
</g>
<g id="A11ECA0D" clip-path="url(#A11ECA0D_clip)">
<g id="CB1FCEBC">
<g id="DD86197C">
<polyline style="fill:#D0D2D3;stroke:none" id="5886197C" points="127.173461252,241.556843915 129.198479395,240.19683173 172.913871068,305.007412408 170.888852925,306.367424593"/>
</g>
</g>
</g>
<g id="971ECA0D" clip-path="url(#971ECA0D_clip)">
<g id="602FCEBC">
<g id="0596197C">
<polyline style="fill:#CECFD1;stroke:none" id="1196197C" points="125.147443099,242.92685619 127.173461252,241.556843915 170.888852925,306.367424593 168.862834772,307.737436868"/>
</g>
</g>
</g>
<g id="7D1ECA0D" clip-path="url(#7D1ECA0D_clip)">
<g id="252FCEBC">
<g id="8A96197C">
<polyline style="fill:#CBCDCF;stroke:none" id="3796197C" points="123.122424956,244.296868465 125.147443099,242.92685619 168.862834772,307.737436868 166.838816638,309.107449142"/>
</g>
</g>
</g>
<g id="A32ECA0D" clip-path="url(#A32ECA0D_clip)">
<g id="F92FCEBC">
<g id="CF96197C">
<polyline style="fill:#C8CACB;stroke:none" id="8C96197C" points="121.098406822,245.65688065 123.122424956,244.296868465 166.838816638,309.107449142 164.812798485,310.467461328"/>
</g>
</g>
</g>
<g id="B92ECA0D" clip-path="url(#B92ECA0D_clip)">
<g id="CE2FCEBC">
<g id="CCA6197C">
<polyline style="fill:#C5C7C9;stroke:none" id="88A6197C" points="119.069388642,247.026892925 121.098406822,245.65688065 164.812798485,310.467461328 162.787780342,311.837473602"/>
</g>
</g>
</g>
<g id="9F2ECA0D" clip-path="url(#9F2ECA0D_clip)">
<g id="633FCEBC">
<g id="D3B6197C">
<polyline style="fill:#C3C5C7;stroke:none" id="3FA6197C" points="117.045370508,248.3969052 119.069388642,247.026892925 162.787780342,311.837473602 160.763762208,313.207485877"/>
</g>
</g>
</g>
<g id="953ECA0D" clip-path="url(#953ECA0D_clip)">
<g id="383FCEBC">
<g id="F9B6197C">
<polyline style="fill:#C0C1C3;stroke:none" id="76B6197C" points="115.020352365,249.756917385 117.045370508,248.3969052 160.763762208,313.207485877 158.735744037,314.567498062"/>
</g>
</g>
</g>
<g id="DB3ECA0D" clip-path="url(#DB3ECA0D_clip)">
<g id="3D3FCEBC">
<g id="71C6197C">
<polyline style="fill:#BDBFC1;stroke:none" id="0EB6197C" points="112.994334212,251.12692966 115.020352365,249.756917385 158.735744037,314.567498062 156.709725885,315.937510337"/>
</g>
</g>
</g>
<g id="F14ECA0D" clip-path="url(#F14ECA0D_clip)">
<g id="F14FCEBC">
<g id="A9C6197C">
<polyline style="fill:#BBBCBF;stroke:none" id="06C6197C" points="110.969316069,252.486941845 112.994334212,251.12692966 156.709725885,315.937510337 154.684707742,317.307522612"/>
</g>
</g>
</g>
<g id="784ECA0D" clip-path="url(#784ECA0D_clip)">
<g id="F64FCEBC">
<g id="5507197C">
<polyline style="fill:#B8BABC;stroke:none" id="A4D6197C" points="108.944297925,253.85695412 110.969316069,252.486941845 154.684707742,317.307522612 152.659689598,318.667534797"/>
</g>
</g>
</g>
<g id="8E4ECA0D" clip-path="url(#8E4ECA0D_clip)">
<g id="CB4FCEBC">
<g id="0C07197C">
<polyline style="fill:#B5B7B9;stroke:none" id="1807197C" points="106.920279791,255.226966394 108.944297925,253.85695412 152.659689598,318.667534797 150.634671455,320.027546982"/>
</g>
</g>
</g>
<g id="745ECA0D" clip-path="url(#745ECA0D_clip)">
<g id="025FCEBC">
<g id="A217197C">
<polyline style="fill:#B2B4B7;stroke:none" id="BE07197C" points="104.895261648,256.58697858 106.920279791,255.226966394 150.634671455,320.027546982 148.609653312,321.397559257"/>
</g>
</g>
</g>
<g id="9A5ECA0D" clip-path="url(#9A5ECA0D_clip)">
<g id="B65FCEBC">
<g id="B817197C">
<polyline style="fill:#B0B2B4;stroke:none" id="F417197C" points="102.868243486,257.956990854 104.895261648,256.58697858 148.609653312,321.397559257 146.585635177,322.767571532"/>
</g>
</g>
</g>
<g id="F06ECA0D" clip-path="url(#F06ECA0D_clip)">
<g id="3C5FCEBC">
<g id="EE17197C">
<polyline style="fill:#ADAFB1;stroke:none" id="1B17197C" points="100.844225352,259.317003039 102.868243486,257.956990854 146.585635177,322.767571532 144.560617034,324.127583717"/>
</g>
</g>
</g>
<g id="276ECA0D" clip-path="url(#276ECA0D_clip)">
<g id="526FCEBC">
<g id="0527197C">
<polyline style="fill:#AAACAF;stroke:none" id="3127197C" points="98.8192072082,260.687015314 100.844225352,259.317003039 144.560617034,324.127583717 142.533598872,325.497595992"/>
</g>
</g>
</g>
<g id="3D6ECA0D" clip-path="url(#3D6ECA0D_clip)">
<g id="C86FCEBC">
<g id="CB27197C">
<polyline style="fill:#A8AAAC;stroke:none" id="8827197C" points="96.7911890379,262.047027499 98.8192072082,260.687015314 142.533598872,325.497595992 140.509580738,326.867608267"/>
</g>
</g>
</g>
<g id="837ECA0D" clip-path="url(#837ECA0D_clip)">
<g id="307FCEBC">
<g id="C037197C">
<polyline style="fill:#A5A7A9;stroke:none" id="BD27197C" points="94.7661708945,263.417039774 96.7911890379,262.047027499 140.509580738,326.867608267 138.484562595,328.227620452"/>
</g>
</g>
</g>
<g id="997ECA0D" clip-path="url(#997ECA0D_clip)">
<g id="857FCEBC">
<g id="A537197C">
<polyline style="fill:#A2A4A7;stroke:none" id="8237197C" points="92.7411527511,264.787052049 94.7661708945,263.417039774 138.484562595,328.227620452 136.457544433,329.597632726"/>
</g>
</g>
</g>
<g id="E08ECA0D" clip-path="url(#E08ECA0D_clip)">
<g id="1B7FCEBC">
<g id="3B37197C">
<polyline style="fill:#A0A2A5;stroke:none" id="6737197C" points="102.570825163,280.494119532 104.595843307,279.124107257 148.312234989,343.934687934 146.285216828,345.304700209"/>
</g>
</g>
</g>
<path style="fill:none;stroke-linecap:butt;stroke-width:1.497813419824;stroke-miterlimit:3.864" id="FE57197C" d="M173.938880252,283.527219954 C173.938880252,261.939872523 156.438877475,244.439869746 134.851530044,244.439869746 C113.264182613,244.439869746 95.7641798362,261.939872523 95.7641798362,283.527219954 C95.7641798362,305.114567384 113.264182613,322.614570161 134.851530044,322.614570161
C156.438877475,322.614570161 173.938880252,305.114567384 173.938880252,283.527219954"/>
<path style="fill:#F0F0F0;stroke:none" id="1167197C" d="M163.772789167,278.90717856 C163.772789167,262.585361111 150.54134183,249.353913774 134.219524382,249.353913774 C117.897706933,249.353913774 104.666259596,262.585361111 104.666259596,278.90717856 C104.666259596,295.228996009 117.897706933,308.460443346 134.219524382,308.460443346
C150.54134183,308.460443346 163.772789167,295.228996009 163.772789167,278.90717856"/>
<path style="fill:none;stroke-linecap:butt;stroke-width:1.629014595336;stroke-miterlimit:3.864" id="1367197C" d="M163.772789167,278.90717856 C163.772789167,262.585361111 150.54134183,249.353913774 134.219524382,249.353913774 C117.897706933,249.353913774 104.666259596,262.585361111 104.666259596,278.90717856 C104.666259596,295.228996009 117.897706933,308.460443346 134.219524382,308.460443346
C150.54134183,308.460443346 163.772789167,295.228996009 163.772789167,278.90717856"/>
<g id="39AECA0D" clip-path="url(#39AECA0D_clip)">
<g id="5C9FCEBC">
<g id="CE77197C">
<polyline style="fill:#939598;stroke:none" id="1567197C" points="121.832413398,313.357487221 119.51339262,314.247495195 99.9322171806,263.247038251 102.252237967,262.357030277"/>
</g>
</g>
</g>
<g id="4FAECA0D" clip-path="url(#4FAECA0D_clip)">
<g id="11AFCEBC">
<g id="5487197C">
<polyline style="fill:#989A9D;stroke:none" id="4187197C" points="124.150434166,312.467479247 121.832413398,313.357487221 102.252237967,262.357030277 104.569258727,261.467022303"/>
</g>
</g>
</g>
<g id="45BECA0D" clip-path="url(#45BECA0D_clip)">
<g id="06AFCEBC">
<g id="6987197C">
<polyline style="fill:#9D9FA1;stroke:none" id="2687197C" points="126.469454944,311.577471273 124.150434166,312.467479247 104.569258727,261.467022303 106.889279513,260.577014329"/>
</g>
</g>
</g>
<g id="6BBECA0D" clip-path="url(#6BBECA0D_clip)">
<g id="BAAFCEBC">
<g id="2097197C">
<polyline style="fill:#A1A3A6;stroke:none" id="FB87197C" points="128.787475713,310.687463299 126.469454944,311.577471273 106.889279513,260.577014329 109.207300282,259.677006265"/>
</g>
</g>
</g>
<g id="91CECA0D" clip-path="url(#91CECA0D_clip)">
<g id="6FAFCEBC">
<g id="5797197C">
<polyline style="fill:#A6A8AB;stroke:none" id="E297197C" points="131.107496499,309.797455325 128.787475713,310.687463299 109.207300282,259.677006265 111.526321059,258.786998291"/>
</g>
</g>
</g>
<g id="38CECA0D" clip-path="url(#38CECA0D_clip)">
<g id="14BFCEBC">
<g id="78A7197C">
<polyline style="fill:#ABADB0;stroke:none" id="7A97197C" points="133.42351725,308.907447351 131.107496499,309.797455325 111.526321059,258.786998291 113.845341837,257.906990406"/>
</g>
</g>
</g>
<g id="BECECA0D" clip-path="url(#BECECA0D_clip)">
<g id="B8BFCEBC">
<g id="CEA7197C">
<polyline style="fill:#B0B2B4;stroke:none" id="0BA7197C" points="135.744538045,308.017439376 133.42351725,308.907447351 113.845341837,257.906990406 116.163362605,257.006982343"/>
</g>
</g>
</g>
<g id="45DECA0D" clip-path="url(#45DECA0D_clip)">
<g id="6DBFCEBC">
<g id="34B7197C">
<polyline style="fill:#B5B7B9;stroke:none" id="D0B7197C" points="138.061558805,307.127431402 135.744538045,308.017439376 116.163362605,257.006982343 118.483383392,256.116974368"/>
</g>
</g>
</g>
<g id="5BDECA0D" clip-path="url(#5BDECA0D_clip)">
<g id="52CFCEBC">
<g id="79B7197C">
<polyline style="fill:#BABCBE;stroke:none" id="26B7197C" points="140.381579591,306.237423428 138.061558805,307.127431402 118.483383392,256.116974368 120.800404152,255.226966394"/>
</g>
</g>
</g>
<g id="E1EECA0D" clip-path="url(#E1EECA0D_clip)">
<g id="17CFCEBC">
<g id="BEB7197C">
<polyline style="fill:#BFC1C3;stroke:none" id="6BB7197C" points="142.698600351,305.347415454 140.381579591,306.237423428 120.800404152,255.226966394 123.120424938,254.33695842"/>
</g>
</g>
</g>
<g id="E7EECA0D" clip-path="url(#E7EECA0D_clip)">
<g id="5CCFCEBC">
<g id="66C7197C">
<polyline style="fill:#C4C5C8;stroke:none" id="31C7197C" points="145.016621119,304.45740748 142.698600351,305.347415454 123.120424938,254.33695842 125.438445707,253.456950536"/>
</g>
</g>
</g>
<g id="DDEECA0D" clip-path="url(#DDEECA0D_clip)">
<g id="01DFCEBC">
<g id="84D7197C">
<polyline style="fill:#C9CACC;stroke:none" id="5EC7197C" points="147.336641906,303.567399506 145.016621119,304.45740748 125.438445707,253.456950536 127.757466484,252.556942472"/>
</g>
</g>
</g>
<g id="D3FECA0D" clip-path="url(#D3FECA0D_clip)">
<g id="76DFCEBC">
<g id="7CD7197C">
<polyline style="fill:#CECFD1;stroke:none" id="B7D7197C" points="149.653662665,302.677391532 147.336641906,303.567399506 127.757466484,252.556942472 130.074487244,251.666934498"/>
</g>
</g>
</g>
<g id="C9FECA0D" clip-path="url(#C9FECA0D_clip)">
<g id="4BDFCEBC">
<g id="02E7197C">
<polyline style="fill:#D4D5D6;stroke:none" id="EED7197C" points="151.973683452,301.787383558 149.653662665,302.677391532 130.074487244,251.666934498 132.39450803,250.776926524"/>
</g>
</g>
</g>
<g id="EFFECA0D" clip-path="url(#EFFECA0D_clip)">
<g id="02EFCEBC">
<g id="C6E7197C">
<polyline style="fill:#D8D9DA;stroke:none" id="D3E7197C" points="154.291704221,300.897375583 151.973683452,301.787383558 132.39450803,250.776926524 134.71152879,249.88691855"/>
</g>
</g>
</g>
<g id="E50FCA0D" clip-path="url(#E50FCA0D_clip)">
<g id="47EFCEBC">
<g id="8208197C">
<polyline style="fill:#DDDFE0;stroke:none" id="D8E7197C" points="156.610724998,300.007367609 154.291704221,300.897375583 134.71152879,249.88691855 137.031549576,248.996910575"/>
</g>
</g>
</g>
<g id="CB0FCA0D" clip-path="url(#CB0FCA0D_clip)">
<g id="FBEFCEBC">
<g id="4B08197C">
<polyline style="fill:#E2E3E4;stroke:none" id="2608197C" points="158.927745758,299.117359635 156.610724998,300.007367609 137.031549576,248.996910575 139.348570336,248.106902601"/>
</g>
</g>
</g>
<g id="021FCA0D" clip-path="url(#021FCA0D_clip)">
<g id="A0FFCEBC">
<g id="5318197C">
<polyline style="fill:#E7E8E9;stroke:none" id="9E08197C" points="161.247766544,298.227351661 158.927745758,299.117359635 139.348570336,248.106902601 141.668591122,247.216894627"/>
</g>
</g>
</g>
<g id="581FCA0D" clip-path="url(#581FCA0D_clip)">
<g id="55FFCEBC">
<g id="7C18197C">
<polyline style="fill:#EDEDEE;stroke:none" id="6618197C" points="163.564787304,297.337343687 161.247766544,298.227351661 141.668591122,247.216894627 143.988611909,246.336886743"/>
</g>
</g>
</g>
<g id="5E1FCA0D" clip-path="url(#5E1FCA0D_clip)">
<g id="0BFFCEBC">
<g id="A528197C">
<polyline style="fill:#F2F2F3;stroke:none" id="1028197C" points="165.88480809,296.447335713 163.564787304,297.337343687 143.988611909,246.336886743 146.304632659,245.436878679"/>
</g>
</g>
</g>
<g id="742FCA0D" clip-path="url(#742FCA0D_clip)">
<g id="D100DEBC">
<g id="1E28197C">
<polyline style="fill:#F7F7F8;stroke:none" id="E828197C" points="168.204828877,295.557327739 165.88480809,296.447335713 146.304632659,245.436878679 148.623653437,244.546870705"/>
</g>
</g>
</g>
<g id="9A2FCA0D" clip-path="url(#9A2FCA0D_clip)">
<g id="D600DEBC">
<g id="D738197C">
<polyline style="fill:#F0F0F0;stroke:none" id="E138197C" points="170.521849636,294.667319765 168.204828877,295.557327739 148.623653437,244.546870705 150.941674206,243.66686282"/>
</g>
</g>
</g>
<path style="fill:none;stroke-linecap:butt;stroke-width:1.629014595336;stroke-miterlimit:3.864" id="5B38197C" d="M162.542778147,278.967179097 C162.542778147,263.884147441 150.315565114,251.656934408 135.232533458,251.656934408 C120.149501802,251.656934408 107.922288769,263.884147441 107.922288769,278.967179097 C107.922288769,294.050210753 120.149501802,306.277423787 135.232533458,306.277423787
C150.315565114,306.277423787 162.542778147,294.050210753 162.542778147,278.967179097"/>
<g id="983FCA0D" clip-path="url(#983FCA0D_clip)">
<g id="3310DEBC">
<g id="9158197C">
<path style="fill:#D9DBDC;stroke:none" id="8848197C" d="M157.17573006,278.90717856 C157.17573006,291.581292115 146.889637901,301.865384256 134.218524373,301.865384256 C121.547410844,301.865384256 111.261318685,291.581292115 111.261318685,278.90717856 C111.261318685,266.233065005 121.544410818,255.950972881 134.218524373,255.950972881
C146.892637928,255.950972881 157.17573006,266.241065076 157.17573006,278.911178596 M159.901754484,278.8111777 C159.901754484,264.649050813 148.406651493,253.155947839 134.244524606,253.155947839 C120.082397718,253.155947839 108.585294709,264.649050813 108.585294709,278.8111777
C108.585294709,292.973304587 120.080397701,304.469407587 134.244524606,304.469407587 C148.408651511,304.469407587 159.901754484,292.979304641 159.901754484,278.809177682"/>
</g>
</g>
</g>
<g id="CE3FCA0D" clip-path="url(#CE3FCA0D_clip)">
<g id="0810DEBC">
<g id="5B58197C">
<path style="fill:#CDCED0;stroke:none" id="2658197C" d="M154.47470586,278.90717856 C154.47470586,290.089278747 145.398624542,299.165360065 134.218524373,299.165360065 C123.038424203,299.165360065 113.959342858,290.089278747 113.959342858,278.90717856 C113.959342858,267.725078373 123.035424176,258.65299709 134.218524373,258.65299709
C145.398624542,258.642997001 154.47470586,267.723078355 154.47470586,278.903178524 M157.200730284,278.953178972 C157.200730284,266.280065426 146.915638134,255.994973275 134.243524597,255.994973275 C121.571411059,255.994973275 111.2853189,266.280065426 111.2853189,278.953178972
C111.2853189,291.626292518 121.57041105,301.908384642 134.243524597,301.908384642 C146.916638143,301.918384731 157.200730284,291.628292536 157.200730284,278.958179017"/>
</g>
</g>
</g>
<g id="854FCA0D" clip-path="url(#854FCA0D_clip)">
<g id="3D10DEBC">
<g id="F378197C">
<path style="fill:#C0C2C4;stroke:none" id="9D58197C" d="M151.77368166,278.90717856 C151.77368166,288.597265379 143.908611192,296.465335874 134.218524373,296.465335874 C124.528437553,296.465335874 116.661367067,288.598265388 116.661367067,278.90717856 C116.661367067,269.216091731 124.526437535,261.353021281 134.218524373,261.353021281
C143.908611192,261.343021192 151.77368166,269.213091705 151.77368166,278.903178524 M154.498706075,278.953178972 C154.498706075,267.769078767 145.422624757,258.694997467 134.244524606,258.694997467 C123.066424454,258.694997467 113.987343109,267.769078767 113.987343109,278.953178972
C113.987343109,290.137279177 123.061424409,299.20836045 134.244524606,299.20836045 C145.423624766,299.21836054 154.498706075,290.138279186 154.498706075,278.958179017"/>
</g>
</g>
</g>
<g id="AC4FCA0D" clip-path="url(#AC4FCA0D_clip)">
<g id="3220DEBC">
<g id="AA78197C">
<path style="fill:#B3B5B7;stroke:none" id="C678197C" d="M149.07265746,278.90717856 C149.07265746,287.108252038 142.417597833,293.761311647 134.218524373,293.761311647 C126.019450912,293.761311647 119.362391267,287.108252038 119.362391267,278.90717856 C119.362391267,270.706105081 126.016450885,264.053045473 134.218524373,264.053045473
C142.417597833,264.043045383 149.07265746,270.703105054 149.07265746,278.903178524 M151.798681884,278.953178972 C151.798681884,269.263092153 143.932611407,261.398021685 134.244524606,261.398021685 C124.556437804,261.398021685 116.688367309,269.262092144 116.688367309,278.953178972
C116.688367309,288.6442658 124.554437786,296.508336259 134.244524606,296.508336259 C143.932611407,296.49833617 151.798681884,288.628265657 151.798681884,278.938178838"/>
</g>
</g>
</g>
<g id="435FCA0D" clip-path="url(#435FCA0D_clip)">
<g id="1720DEBC">
<g id="3088197C">
<path style="fill:#A7A9AC;stroke:none" id="DC78197C" d="M146.37163326,278.90717856 C146.37163326,285.617238679 140.925584465,291.061287456 134.218524373,291.061287456 C127.51146428,291.061287456 122.062415459,285.617238679 122.062415459,278.90717856 C122.062415459,272.19711844 127.509464262,266.7570697 134.218524373,266.7570697
C140.927584483,266.7570697 146.37163326,272.19711844 146.37163326,278.90717856 M148.949656358,278.957179008 C148.949656358,270.757105538 142.294596731,264.103045921 134.095523271,264.103045921 C125.89644981,264.103045921 119.241390183,270.757105538 119.241390183,278.957179008
C119.241390183,287.157252477 125.89644981,293.811312095 134.095523271,293.811312095 C142.294596731,293.821312185 148.949656358,287.161252513 148.949656358,278.961179044"/>
</g>
</g>
</g>
<g id="C95FCA0D" clip-path="url(#C95FCA0D_clip)">
<g id="4C20DEBC">
<g id="A588197C">
<path style="fill:#9B9DA0;stroke:none" id="4288197C" d="M143.67060906,278.90717856 C143.67060906,284.127225329 139.435571115,288.360263256 134.218524373,288.360263256 C129.00147763,288.360263256 124.764439668,284.127225329 124.764439668,278.90717856 C124.764439668,273.68713179 129.000477621,269.457093891 134.218524373,269.457093891
C139.436571124,269.457093891 143.67060906,273.68713179 143.67060906,278.90717856 M146.396633484,278.957179008 C146.396633484,272.248118897 140.953584716,266.803070112 134.244524606,266.803070112 C127.535464495,266.803070112 122.091415718,272.247118888 122.091415718,278.957179008
C122.091415718,285.667239127 127.535464495,291.110287895 134.244524606,291.110287895 C140.953584716,291.110287895 146.396633484,285.670239154 146.396633484,278.960179035"/>
</g>
</g>
</g>
<g id="406FCA0D" clip-path="url(#406FCA0D_clip)">
<g id="6130DEBC">
<g id="4B88197C">
<path style="fill:#8F9194;stroke:none" id="E788197C" d="M140.96958486,278.90717856 C140.96958486,282.633211944 137.944557756,285.660239065 134.218524373,285.660239065 C130.492490989,285.660239065 127.465463868,282.633211944 127.465463868,278.90717856 C127.465463868,275.181145176 130.49149098,272.157118082 134.218524373,272.157118082
C137.945557765,272.157118082 140.96958486,275.17714514 140.96958486,278.90717856 M143.695609284,278.957179008 C143.695609284,273.737132238 139.462571357,269.504094312 134.243524597,269.504094312 C129.024477836,269.504094312 124.790439901,273.737132238 124.790439901,278.957179008
C124.790439901,284.177225777 129.023477827,288.407263677 134.243524597,288.407263677 C139.463571366,288.407263677 143.695609284,284.177225777 143.695609284,278.957179008"/>
</g>
</g>
</g>
<g id="B66FCA0D" clip-path="url(#B66FCA0D_clip)">
<g id="2730DEBC">
<g id="C098197C">
<path style="fill:#848688;stroke:none" id="5D88197C" d="M138.269560668,278.90717856 C138.269560668,281.144198603 136.454544407,282.959214864 134.218524373,282.959214864 C131.982504339,282.959214864 130.166488068,281.144198603 130.166488068,278.90717856 C130.166488068,276.674158553 131.980504321,274.856142264 134.218524373,274.856142264
C136.453544398,274.856142264 138.269560668,276.666158481 138.269560668,278.906178551 M140.994585084,278.956178999 C140.994585084,275.227145588 137.96955798,272.203118494 134.244524606,272.203118494 C130.519491231,272.203118494 127.49246411,275.227145588 127.49246411,278.956178999
C127.49246411,282.68521241 130.514491186,285.706239477 134.244524606,285.706239477 C137.974558025,285.706239477 140.994585084,282.686212418 140.994585084,278.956178999"/>
</g>
</g>
</g>
<g id="EC6FCA0D" clip-path="url(#EC6FCA0D_clip)">
<g id="8C30DEBC">
<g id="F3A8197C">
<path style="fill:#797A7D;stroke:none" id="A0A8197C" d="M135.567536459,278.90717856 C135.567536459,279.655185262 134.963531048,280.256190646 134.218524373,280.256190646 C133.473517698,280.256190646 132.866512259,279.654185253 132.866512259,278.90717856 C132.866512259,278.163171894 133.47151768,277.556166455 134.218524373,277.556166455
C134.965531066,277.556166455 135.567536459,278.156171831 135.567536459,278.906178551 M138.293560883,278.806177655 C138.293560883,276.572157639 136.479544631,274.757141377 134.244524606,274.757141377 C132.009504581,274.757141377 130.19348831,276.572157639 130.19348831,278.806177655
C130.19348831,281.043197698 132.007504563,282.85821396 134.244524606,282.85821396 C136.478544622,282.85821396 138.293560883,281.048197742 138.293560883,278.808177673"/>
</g>
</g>
</g>
<path style="fill:none;stroke-linecap:butt;stroke-width:1.629014595336;stroke-miterlimit:3.864" id="93B8197C" d="M157.861736207,278.90717856 C157.861736207,265.849393227 147.276309706,255.263966726 134.218524373,255.263966726 C121.16073904,255.263966726 110.575312539,265.849393227 110.575312539,278.90717856 C110.575312539,291.964963893 121.16073904,302.550390394 134.218524373,302.550390394
C147.276309706,302.550390394 157.861736207,291.964963893 157.861736207,278.90717856"/>
<polyline style="fill:none;stroke-linecap:butt;stroke-width:1.628956813163;stroke-miterlimit:3.864" id="7AE8197C" points="112.303362221,330.069625955 121.937890243,302.890509941 134.213120224,307.241867328 124.578592203,334.420983342 112.303362221,330.069625955"/>
<path style="fill:#F0F0F0;stroke:none" id="3CE8197C" d="M225.801344919,22.666882747 C225.801344919,22.666882747 235.94143577,23.3078884901 237.865453009,36.9740109332 C239.789470247,50.6401333764 236.90344439,50.3181304914 236.90344439,50.3181304914 C236.90344439,50.3181304914 225.477342016,56.5831866238 207.328179407,59.1752098473
C202.841139205,59.8172155995 198.47210006,50.5181322833 197.191088582,46.7920988995 C195.910077105,43.0660655157 194.103060915,37.6150166764 198.793102936,34.7299908277 C203.483144957,31.84396497 214.383242617,25.8729114717 225.803344937,22.666882747"/>
<g id="26AFCA0D" clip-path="url(#26AFCA0D_clip)">
<g id="E660DEBC">
<g id="01F8197C">
<path style="fill:none;stroke-linecap:butt;stroke-width:1.629014595336;stroke-miterlimit:3.864" id="0EE8197C" d="M222.601316248,24.2958973423 C222.601316248,24.2958973423 232.686406606,24.9379030944 234.610423845,38.6040255375 C236.534441083,52.2661479448 233.650415244,51.9461450777 233.650415244,51.9461450777"/>
</g>
</g>
</g>
<path style="fill:none;stroke-linecap:butt;stroke-width:1.629014595336;stroke-miterlimit:3.864" id="D2F8197C" d="M225.801344919,22.666882747 C225.801344919,22.666882747 235.94143577,23.3078884901 237.865453009,36.9740109332 C239.789470247,50.6401333764 236.90344439,50.3181304914 236.90344439,50.3181304914 C236.90344439,50.3181304914 225.477342016,56.5831866238 207.328179407,59.1752098473
C202.841139205,59.8172155995 198.47210006,50.5181322833 197.191088582,46.7920988995 C195.910077105,43.0660655157 194.103060915,37.6150166764 198.793102936,34.7299908277 C203.483144957,31.84396497 214.383242617,25.8729114717 225.803344937,22.666882747
z"/>
<path style="stroke:none" id="A4F8197C" d="M401.512919226,136.475902431 C401.533919414,136.529902915 409.946994792,156.910085513 409.616991836,180.258294704 C409.288988897,203.712504845 400.092906503,230.390743871 364.687589286,242.202849703 C335.184324948,252.041937858 303.647042386,241.922847195 279.723828043,229.597736766
C255.744613199,217.244626087 239.030463447,202.475493762 238.987463061,202.435493403 L241.205482934,200.009471667 C241.205482934,200.009471667 245.309519705,203.634504146 252.357582853,208.778550235 C282.210850326,230.569745475 325.878241569,251.70293482 363.618579708,239.113822027
C406.406963075,224.840694145 411.789011296,186.582351365 402.480927899,150.43402749 C400.476909944,142.652957775 398.434891648,137.703913434 398.434891648,137.703913434 L401.524919334,136.483902503"/>
<path style="fill:#D1D3D4;stroke:none" id="76F8197C" d="M195.27107138,41.7840540294 C197.39509041,41.7840540294 168.902835131,50.6401333764 159.402750013,76.0483610242 C151.565679796,97.0145488731 184.976979149,167.316178748 275.503790234,262.330030035 L283.232859483,250.168921076
C192.702048362,155.158069816 160.681761473,96.0075398506 170.821852324,76.0473610152 C180.961943175,56.0871821798 202.520136328,52.881153455 200.397117307,52.881153455 C200.397117307,52.881153455 202.400135253,49.235120788 201.238124842,45.8310902892
C200.076114431,42.4270597904 195.278071442,41.7860540473 195.278071442,41.7860540473"/>
<path style="fill:none;stroke-linecap:butt;stroke-width:1.629014595336;stroke-miterlimit:3.864" id="1309197C" d="M195.27107138,41.7840540294 C197.39509041,41.7840540294 168.902835131,50.6401333764 159.402750013,76.0483610242 C151.565679796,97.0145488731 184.976979149,167.316178748 275.503790234,262.330030035 L283.232859483,250.168921076
C192.702048362,155.158069816 160.681761473,96.0075398506 170.821852324,76.0473610152 C180.961943175,56.0871821798 202.520136328,52.881153455 200.397117307,52.881153455 C200.397117307,52.881153455 202.400135253,49.235120788 201.238124842,45.8310902892
C200.076114431,42.4270597904 195.278071442,41.7860540473 195.278071442,41.7860540473 z"/>
<path style="fill:#366AAC;stroke:none" id="825DBE3D" d="M117.16412239,429.267593745 C117.164128834,429.26761552 117.164135278,429.267637296 117.164141722,429.267659071"/>
<path style="fill:#366AAC;stroke:none" id="525DBE3D" d="M93.5317399731,429.619846527 C91.1543344673,419.063170319 90.0561286943,409.181608119 90.0561286943,400.777270468 C90.0561286943,382.852109866 101.053227225,346.851787317 107.041280875,328.696624654 C107.041280875,328.696624654 114.969351908,327.724615945 119.559393033,329.410631051
C123.645429642,330.910644491 128.686474808,335.840688662 128.686474808,335.840688662 L128.675474709,335.827688545 C128.333471645,336.863697828 112.836332797,384.347123261 112.836332797,400.767270379 C112.836332797,409.400998182 114.231690018,419.358618377 117.16412239,429.267593745"/>
<path style="fill:#366AAC;stroke:none" id="776DBE3D" d="M93.6464465777,429.391341485 C93.6421123474,429.373411326 93.637782323,429.355482357 93.633456503,429.337554584"/>
<path style="fill:#366AAC;stroke:none" id="E06DBE3D" d="M469.141157545,427.474314151 C469.143113919,427.48087853 469.145069825,427.487442963 469.147025263,427.494007452"/>
<path style="fill:#366AAC;stroke:none" id="C95DBE3D" d="M446.365701651,428.134408093 C445.263259124,425.899701029 444.698334775,424.379044641 444.17030142,423.032469866 C439.274257553,410.540357942 405.051950935,346.661785615 393.575848113,325.340594585 C371.612651331,331.341648352 343.712401356,324.196584335 313.168127691,301.96738517
C297.075983512,290.251280199 281.349842612,276.12915367 268.328725948,260.988018011 C268.328725948,260.988018011 271.074750551,252.658943386 275.268788128,249.55991562 C278.682818716,247.035893006 285.594880646,246.106884682 285.594880646,246.106884682
C289.402914764,250.525924275 355.100503389,323.246575824 393.565848024,300.874375377 C433.347204449,277.739168095 415.186041732,191.64339671 414.240033256,187.583360334 C414.240033256,187.583360334 420.516089487,182.556315294 425.342132727,181.616306872
C429.604170913,180.787299444 436.443232188,182.426314129 436.443232188,182.426314129 C436.443232188,182.426314129 442.415285695,208.061543811 441.964281655,237.425806903 C441.402276619,273.968134308 430.973183179,300.360370772 413.765029,314.766499845
C418.387070412,323.354576791 426.559143631,338.579713202 435.062219815,354.660857283 C448.563678591,380.184462391 461.985274551,403.463611219 469.141157545,427.474314151"/>
<path style="fill:#366AAC;stroke:none" id="695DBE3D" d="M445.834824619,427.582980982 C445.834824619,427.582980982 445.834824619,427.582980982 445.834824619,427.582980982"/>
<path style="fill:none;stroke-linecap:butt;stroke-width:1.629014595336;stroke-miterlimit:3.864" id="D92B804D" d="M93.6336304492,430.041909633 C91.952668606,425.417179876 90.0561286943,411.821683109 90.0561286943,400.777270468 C90.0561286943,382.852109866 101.053227225,346.851787317 107.041280875,328.696624654 C107.041280875,328.696624654 114.969351908,327.724615945 119.559393033,329.410631051
C123.645429642,330.910644491 128.686474808,335.840688662 128.686474808,335.840688662 L128.675474709,335.827688545 C128.333471645,336.863697828 112.836332797,384.347123261 112.836332797,400.767270379 C112.836332797,412.323112423 115.336055837,426.250651307 116.262181253,429.019765023"/>
<path style="fill:none;stroke-linecap:butt;stroke-width:1.629014595336;stroke-miterlimit:3.864" id="A91B804D" d="M446.465331096,427.862739984 C445.783460455,426.555338692 443.995635469,423.104201227 444.17030142,423.032469866 C439.274257553,410.540357942 405.051950935,346.661785615 393.575848113,325.340594585 C371.612651331,331.341648352 343.712401356,324.196584335 313.168127691,301.96738517
C297.075983512,290.251280199 281.349842612,276.12915367 268.328725948,260.988018011 C268.328725948,260.988018011 271.074750551,252.658943386 275.268788128,249.55991562 C278.682818716,247.035893006 285.594880646,246.106884682 285.594880646,246.106884682
C289.402914764,250.525924275 355.100503389,323.246575824 393.565848024,300.874375377 C433.347204449,277.739168095 415.186041732,191.64339671 414.240033256,187.583360334 C414.240033256,187.583360334 420.516089487,182.556315294 425.342132727,181.616306872
C429.604170913,180.787299444 436.443232188,182.426314129 436.443232188,182.426314129 C436.443232188,182.426314129 442.415285695,208.061543811 441.964281655,237.425806903 C441.402276619,273.968134308 430.973183179,300.360370772 413.765029,314.766499845
C418.387070412,323.354576791 426.559143631,338.579713202 435.062219815,354.660857283 C451.214385348,385.195446289 467.252251273,412.517770973 467.961292898,427.528338952"/>
<path style="fill:#F0F0F0;stroke:none" id="AD09197C" d="M338.692356378,310.15745855 C338.692356378,310.15745855 357.962529032,324.312585375 387.398792769,320.925555028 C387.398792769,320.925555028 385.707777618,317.570524968 372.120655883,316.970519592 C358.533534148,316.370514217 352.280478123,312.418478808 349.459452847,311.289468692
C346.638427572,310.160458577 338.689356352,310.159458568 338.689356352,310.159458568"/>
<path style="fill:#BCBEC0;stroke:none" id="7F09197C" d="M227.921363914,200.836479077 L247.037535187,224.440690561 C247.037535187,224.440690561 248.960552416,214.450601054 259.139643617,221.236661854 L239.939471591,199.398466193 C239.939471591,199.398466193 232.5294052,192.698406163 227.919363896,200.838479095
z"/>
<path style="fill:none;stroke-linecap:butt;stroke-width:1.629014595336;stroke-miterlimit:3.864" id="6119197C" d="M227.921363914,200.836479077 L247.037535187,224.440690561 C247.037535187,224.440690561 248.960552416,214.450601054 259.139643617,221.236661854 L239.939471591,199.398466193 C239.939471591,199.398466193 232.5294052,192.698406163 227.919363896,200.838479095
z"/>
<path style="fill:#D1D3D4;stroke:none" id="5319197C" d="M432.943200829,186.486350505 L419.876083753,191.659396854 C377.605705027,48.0781104216 332.37529978,16.2978256827 325.67523975,13.437800058 C318.978179747,10.5677743437 278.691818797,19.6838560202 278.691818797,19.6838560202
L272.472763077,7.742749032534 C272.472763077,7.742749032534 305.188056193,0.45668375223 314.387138613,1.412692317694 C323.586221033,2.368700883158 331.236289575,1.412692317694 339.480363439,10.6127747469
C347.724437302,19.812857176 383.447757369,48.3221126078 416.667055001,137.983915942 C425.057130173,160.604118611 430.577179631,177.254267789 432.947200865,186.484350487 z"/>
<path style="fill:none;stroke-linecap:butt;stroke-width:1.629014595336;stroke-miterlimit:3.864" id="3519197C" d="M432.943200829,186.486350505 L419.876083753,191.659396854 C377.605705027,48.0781104216 332.37529978,16.2978256827 325.67523975,13.437800058 C318.978179747,10.5677743437 278.691818797,19.6838560202 278.691818797,19.6838560202
L272.472763077,7.742749032534 C272.472763077,7.742749032534 305.188056193,0.45668375223 314.387138613,1.412692317694 C323.586221033,2.368700883158 331.236289575,1.412692317694 339.480363439,10.6127747469
C347.724437302,19.812857176 383.447757369,48.3221126078 416.667055001,137.983915942 C425.057130173,160.604118611 430.577179631,177.254267789 432.947200865,186.484350487 z"/>
<path style="fill:#BCBEC0;stroke:none" id="1719197C" d="M411.783011242,172.22622274 C414.309033874,153.758057272 423.682117854,152.746048205 423.682117854,152.746048205 L414.028031357,126.137809806 C414.028031357,126.137809806 399.880904604,117.324730844 399.039897069,138.317918935
L411.780011215,172.228222758 z"/>
<path style="fill:none;stroke-linecap:butt;stroke-width:1.629014595336;stroke-miterlimit:3.864" id="F819197C" d="M411.783011242,172.22622274 C414.309033874,153.758057272 423.682117854,152.746048205 423.682117854,152.746048205 L414.028031357,126.137809806 C414.028031357,126.137809806 399.880904604,117.324730844 399.039897069,138.317918935
L411.780011215,172.228222758 z"/>
<path style="fill:#F0F0F0;stroke:none" id="CA19197C" d="M334.212316239,16.9768317663 C334.212316239,16.9768317663 351.596471994,27.2649239436 363.615579681,46.9941007093 C375.634687367,66.7232774751 388.991807042,94.7855289019 388.991807042,94.7855289019 C388.991807042,94.7855289019 362.909573355,49.1701202056 354.278496024,37.6590170706
C349.248450957,30.952956987 334.208316203,16.9768317663 334.208316203,16.9768317663"/>
<path style="fill:#F0F0F0;stroke:none" id="BC19197C" d="M284.191868075,26.1939143478 C281.305842218,30.0419488247 263.595683542,41.1430482862 256.860623198,42.7440626307 C250.125562855,44.3450769751 247.043535241,40.1790396491 245.117517984,36.6540080661 C243.194500755,33.1259764564 240.100473034,19.8838578121 247.364538117,15.4148177713
C260.387654799,7.3987459504 275.014785852,4.833722968795 275.014785852,4.833722968795 C275.014785852,4.833722968795 287.704899551,8.160752777684 284.184868013,26.1939143478"/>
<g id="EDCFCA0D" clip-path="url(#EDCFCA0D_clip)">
<g id="7780DEBC">
<g id="6329197C">
<path style="fill:none;stroke-linecap:butt;stroke-width:1.629014595336;stroke-miterlimit:3.864" id="1029197C" d="M261.670666294,28.7009368097 C261.670666294,20.6551804874 257.176012627,14.132806285 251.631576348,14.132806285 C246.087140068,14.132806285 241.592486401,20.6551804874 241.592486401,28.7009368097 C241.592486401,36.7466931321 246.087140068,43.2690673345 251.631576348,43.2690673345
C257.176012627,43.2690673345 261.670666294,36.7466931321 261.670666294,28.7009368097"/>
</g>
</g>
</g>
<path style="fill:none;stroke-linecap:butt;stroke-width:1.629014595336;stroke-miterlimit:3.864" id="2629197C" d="M284.191868075,26.1939143478 C281.305842218,30.0419488247 263.595683542,41.1430482862 256.860623198,42.7440626307 C250.125562855,44.3450769751 247.043535241,40.1790396491 245.117517984,36.6540080661 C243.194500755,33.1259764564 240.100473034,19.8838578121 247.364538117,15.4148177713
C260.387654799,7.3987459504 275.014785852,4.833722968795 275.014785852,4.833722968795 C275.014785852,4.833722968795 287.704899551,8.160752777684 284.184868013,26.1939143478 z"/>
<path style="stroke:none" id="F729197C" d="M249.60155816,28.7009368097 C249.60155816,25.7219101188 250.868569512,23.3078884901 252.429583498,23.3078884901 C253.990597484,23.3078884901 255.254608809,25.7219101188 255.254608809,28.7009368097 C255.254608809,31.6799635006 253.988597466,34.0899850935 252.429583498,34.0899850935
C250.870569529,34.0899850935 249.599558142,31.6749634558 249.599558142,28.7009368097 z"/>
<path style="fill:none;stroke-linecap:butt;stroke-width:1.629014595336;stroke-miterlimit:3.864" id="D929197C" d="M249.60155816,28.7009368097 C249.60155816,25.7219101188 250.868569512,23.3078884901 252.429583498,23.3078884901 C253.990597484,23.3078884901 255.254608809,25.7219101188 255.254608809,28.7009368097 C255.254608809,31.6799635006 253.988597466,34.0899850935 252.429583498,34.0899850935
C250.870569529,34.0899850935 249.599558142,31.6749634558 249.599558142,28.7009368097 z"/>
<rect style="fill:none;stroke:none" id="4136F0EC" x="0" y="0" width="551.509310922" height="551.509310922"/>
</g>
</svg>
