<?xml version="1.0" encoding="UTF-8" standalone="no"?>
<svg viewBox="0 0 350.28601 350.28601" xmlns="http://www.w3.org/2000/svg">
<g fill="none"  stroke-linejoin="round"  transform="translate(6,6)">
<path d="m338.286,169.143c0,93.367-75.776,169.143-169.143,169.143s-169.143-75.776-169.143-169.143 75.7764-169.143 169.143-169.143 169.143,75.7764 169.143,169.143z" fill="#ef7900"/>
</g>
<g transform="translate(142.095,43.976)">
<path d="m0,30.6103c0-8.4609 3.217-15.6777 9.651-21.6504s14.142-8.9589 23.122-8.9599c9.115.001 16.89,2.9873 23.324,8.9599s9.651,13.1895 9.652,21.6504c-.001,8.3379-3.218,15.5547-9.652,21.6514-6.434,5.9727-14.209,8.9587-23.324,8.9587-8.98,0-16.688-2.986-23.122-8.9587-6.434-6.0967-9.651-13.3135-9.651-21.6514zm62.933,57.3011v176.1946h-59.716v-176.1946h59.716" fill="#ffffff"/>
</g>
</svg>
